<svg xmlns="http://www.w3.org/2000/svg" width="75.915" height="71" viewBox="0 0 75.915 71"><defs><style>.a{fill:#26e5bc;}</style></defs><path class="a" d="M17.58,30.653V66.117a3.663,3.663,0,1,0,7.325,0V30.653a3.663,3.663,0,1,0-7.325,0Z" transform="translate(0.81 1.22)"/><path class="a" d="M22.875,30.793,5.483,18.392A3.684,3.684,0,0,0,.471,19.7a3.767,3.767,0,0,0,1.319,5.013L19.171,37.124a3.684,3.684,0,0,0,5.013-1.329,3.767,3.767,0,0,0-1.308-5.013Z" transform="translate(-0.006 0.798)"/><path class="a" d="M41.322,19.8,14.324.522A3.694,3.694,0,0,0,9.311,1.84a3.746,3.746,0,0,0,1.308,5.013L37.628,26.16c1.612,1.151,4.071.283,5.013-1.308a3.757,3.757,0,0,0-1.319-5.013Z" transform="translate(0.404 -0.032)"/><path class="a" d="M69.894,13.315,32.849,20.64a3.7,3.7,0,0,0-2.564,4.51A3.746,3.746,0,0,0,34.8,27.7L71.84,20.379a3.684,3.684,0,0,0,2.553-4.5,3.736,3.736,0,0,0-4.5-2.564Z" transform="translate(1.395 0.58)"/><path class="a" d="M33.9,17.642,18.925,27.06a5.232,5.232,0,1,0,5.285,9.031l14.975-9.419A5.236,5.236,0,1,0,33.9,17.632Z" transform="translate(0.752 0.752)"/><path class="a" d="M7.318,22.879,12.027,9.515a3.673,3.673,0,0,0-2.564-4.51,3.746,3.746,0,0,0-4.5,2.553L.276,20.932a3.684,3.684,0,0,0,2.564,4.5A3.746,3.746,0,0,0,7.318,22.879Z" transform="translate(0 0.194)"/><circle class="a" cx="7.242" cy="7.242" r="7.242" transform="translate(38.859 1.494)"/></svg>