<svg xmlns="http://www.w3.org/2000/svg" width="40.951" height="71" viewBox="0 0 40.951 71"><defs><style>.a{fill:#00e5bc;}</style></defs><path class="a" d="M12.71,39.265V67.28a3.205,3.205,0,1,0,6.41,0V39.265a3.205,3.205,0,1,0-6.41,0Z" transform="translate(0.188 0.515)"/><path class="a" d="M12.49,25.107v9.007a7.729,7.729,0,0,0,2.272,5.355,5.853,5.853,0,0,0,2.505,1.562,5.944,5.944,0,0,0,2.992.659,7.962,7.962,0,0,0,5.5-2.221,7.759,7.759,0,0,0,2.282-5.355V25.107a7.7,7.7,0,0,0-2.282-5.355,5.761,5.761,0,0,0-2.505-1.572,5.913,5.913,0,0,0-3.043-.649,7.922,7.922,0,0,0-5.5,2.221,7.729,7.729,0,0,0-2.221,5.355Z" transform="translate(0.185 0.25)"/><path class="a" d="M21.82,39.265V67.28a3.205,3.205,0,1,0,6.41,0V39.265a3.205,3.205,0,1,0-6.41,0Z" transform="translate(0.318 0.515)"/><path class="a" d="M24.369,22.282l12.029,7.1a2.743,2.743,0,0,0,2.769-4.737l-12.029-7.1a2.743,2.743,0,1,0-2.769,4.737Z" transform="translate(0.335 0.245)"/><path class="a" d="M13.267,17.545,1.359,24.838A2.789,2.789,0,0,0,.345,28.59,2.8,2.8,0,0,0,4.108,29.6l11.9-7.293a2.743,2.743,0,0,0-2.769-4.737Z" transform="translate(0.006 0.246)"/><path class="a" d="M35.448,25.589,27.425,36.28a2.769,2.769,0,0,0-.274,2.12,2.81,2.81,0,0,0,1.258,1.633,2.769,2.769,0,0,0,2.12.284,3.154,3.154,0,0,0,1.633-1.268l8.023-10.691a2.75,2.75,0,0,0-3.1-4.037A3.205,3.205,0,0,0,35.448,25.589Z" transform="translate(0.393 0.346)"/><path class="a" d="M.811,29.066l7.475,9.5a2.739,2.739,0,0,0,1.947.811,2.8,2.8,0,0,0,1.937-.811,2.769,2.769,0,0,0,.8-1.937,3.154,3.154,0,0,0-.8-1.958L4.686,25.161a2.769,2.769,0,0,0-1.937-.8,2.81,2.81,0,0,0-1.937.8A2.779,2.779,0,0,0,0,27.109a3.246,3.246,0,0,0,.811,1.958Z" transform="translate(0.007 0.348)"/><circle class="a" cx="6.857" cy="6.857" r="6.857" transform="translate(13.912)"/><path class="a" d="M12.643,40.067V30.532s-.436-9.91,0-9.839,1.379-3.5,1.379-3.5,3.134-.172,6.207-.3a40.45,40.45,0,0,1,6.086.3,45.492,45.492,0,0,1,.71,4.919l.74,6.258.527,11.695Z" transform="translate(0.184 0.241)"/></svg>