<svg xmlns="http://www.w3.org/2000/svg" width="36" height="70.534" viewBox="0 0 36 70.534"><defs><style>.a{fill:#00e5bc;}.b{fill:#52b79b;}</style></defs><g transform="translate(0 66.436)"><ellipse class="a" cx="17.852" cy="1.902" rx="17.852" ry="1.902" transform="translate(0.148 0.148)"/><path class="a" d="M299.2,312.224c-8.726,0-18-.718-18-2.049s9.274-2.049,18-2.049,18,.718,18,2.049S307.929,312.224,299.2,312.224Zm0-3.8c-11.4,0-17.7,1.037-17.7,1.754s6.3,1.754,17.7,1.754,17.7-1.037,17.7-1.754S310.6,308.42,299.2,308.42Z" transform="translate(-281.203 -308.125)"/></g><g transform="translate(17.363 11.951)"><line class="b" y2="56.707" transform="translate(0.738)"/><rect class="a" width="1.477" height="56.707" transform="translate(0 0)"/></g><g transform="translate(5.647 0)"><rect class="a" width="24.32" height="19.783"/></g><g transform="translate(5.647 4.192)"><ellipse class="a" cx="12.16" cy="15.417" rx="12.16" ry="15.417"/></g><g transform="translate(10.639 19.783)"><g transform="translate(0 0)"><path class="a" d="M324.59,152.557c-.529.193-7.362,9.867-7.362,9.867s7.168,5.238,7.362,13.416c.24-4.522.818-7.251,6.974-13.416a80.627,80.627,0,0,1-2.693-12.277Z" transform="translate(-317.228 -150.147)"/></g></g></svg>