<svg xmlns="http://www.w3.org/2000/svg" width="71" height="71" viewBox="0 0 71 71"><defs><style>.a{fill:#26e5bc;}</style></defs><g transform="translate(14.357 14.357)"><circle class="a" cx="21.012" cy="21.012" r="21.012" transform="translate(0.131 0.131)"/><path class="a" d="M286.672,177.226a21.143,21.143,0,1,1,21.143-21.143A21.167,21.167,0,0,1,286.672,177.226Zm0-42.024a20.882,20.882,0,1,0,20.882,20.882A20.906,20.906,0,0,0,286.672,135.2Z" transform="translate(-265.529 -134.941)"/></g><g transform="translate(34.848)"><rect class="a" width="1.305" height="9.019"/></g><g transform="translate(10.838 54.486)"><rect class="a" width="9.019" height="1.305" transform="translate(0 6.377) rotate(-45)"/></g><g transform="translate(54.486 10.838)"><rect class="a" width="9.019" height="1.305" transform="translate(0 6.377) rotate(-45)"/></g><g transform="translate(54.486 52.862)"><rect class="a" width="1.305" height="9.019" transform="matrix(0.707, -0.707, 0.707, 0.707, 0, 0.923)"/></g><g transform="translate(8.558 10.838)"><rect class="a" width="1.305" height="9.019" transform="translate(0 0.923) rotate(-44.999)"/></g><g transform="translate(0 34.848)"><rect class="a" width="9.019" height="1.305" transform="translate(0 0)"/></g><g transform="translate(61.981 34.848)"><rect class="a" width="9.019" height="1.305" transform="translate(0 0)"/></g><g transform="translate(34.848 61.981)"><rect class="a" width="1.305" height="9.019" transform="translate(0 0)"/></g></svg>