<svg xmlns="http://www.w3.org/2000/svg" width="71.141" height="57" viewBox="0 0 71.141 57"><defs><style>.a{fill:#00e5bc;}</style></defs><g transform="translate(71.141 57) rotate(180)"><rect class="a" width="1.307" height="9.036" transform="translate(34.72)"/><rect class="a" width="9.036" height="1.307" transform="translate(0 34.264)"/><rect class="a" width="9.036" height="1.307" transform="translate(62.105 34.264)"/><path class="a" d="M59.883,80.017A21.953,21.953,0,1,1,81.837,58.063,21.953,21.953,0,0,1,59.883,80.017Zm0-42.112A20.158,20.158,0,1,0,80.042,58.063,20.158,20.158,0,0,0,59.883,37.905Z" transform="translate(-24.313 -23.146)"/><path class="a" d="M59.653,79.915A22.083,22.083,0,1,1,81.735,57.833,22.083,22.083,0,0,1,59.653,79.915Zm0-42.108A20.026,20.026,0,1,0,79.678,57.833,20.026,20.026,0,0,0,59.653,37.807Z" transform="translate(-24.082 -22.915)"/><rect class="a" width="9.036" height="1.307" transform="translate(55.561 16.113) rotate(-45)"/><rect class="a" width="1.307" height="9.036" transform="translate(9.039 10.646) rotate(-45)"/><path class="a" d="M39.32,95.44h43.4l-2.685,9.417-6.706,8.577-8.889,3.587-7.956-.768L48.3,114.144l-6.085-7.651-2.341-5.615Z" transform="translate(-25.204 -61.176)"/></g></svg>