<svg xmlns="http://www.w3.org/2000/svg" width="42" height="42.609" viewBox="0 0 42 42.609"><defs><style>.a{fill:#26e5bc;}</style></defs><g transform="translate(0.128 0.128)"><path class="a" d="M303.9,287.427a21.179,21.179,0,1,1,20.872-21.177A21.05,21.05,0,0,1,303.9,287.427Zm0-40.622a19.447,19.447,0,1,0,19.165,19.445A19.329,19.329,0,0,0,303.9,246.8Z" transform="translate(-283.024 -245.073)"/></g><path class="a" d="M303.66,287.318a21.307,21.307,0,1,1,21-21.3A21.178,21.178,0,0,1,303.66,287.318Zm0-40.625a19.322,19.322,0,1,0,19.044,19.32A19.206,19.206,0,0,0,303.66,246.693Z" transform="translate(-282.66 -244.709)"/><path class="a" d="M304.486,248.851s10.982,8.143,10.976,19.306c-.3,6.188-.534,10.937-9.453,20.146-3.506-.3-9-.84-9-.84l-5.22-3.37-4.691-5.262-4.079-8.361,1.755-9.529,3.7-6.014,7.318-5.262,5.947-1.654Z" transform="translate(-282.896 -246.852)"/></svg>