<svg xmlns="http://www.w3.org/2000/svg" width="62.062" height="71" viewBox="0 0 62.062 71"><defs><style>.a{fill:#26e5bc;}</style></defs><path class="a" d="M9.571,64.841a17.948,17.948,0,0,1,3.867-13.673c4.157-4.922,11.119-7.345,20.718-7.318h0c8.609,0,14.838.547,19.279,3.232,4.846,2.937,7.252,8.308,7.559,16.906l-3.829.137c-.547-14.953-7.11-16.446-23.02-16.446h-.235c-8.264,0-14.155,2-17.5,5.929a14.263,14.263,0,0,0-3.063,10.6Z" transform="translate(-4.26 -19.826)"/><path class="a" d="M49.241,120.3a7.342,7.342,0,0,1-1.094-.038c-1.154,0-14.417-.115-26.017,0-4.851-.044-8.4-1.378-10.583-3.96A9.894,9.894,0,0,1,9.4,108.9l3.785.6-1.892-.3,1.892.279a6.076,6.076,0,0,0,1.307,4.375c1.444,1.641,4.009,2.538,7.657,2.571,12.076-.115,25.99,0,26.132,0h.186c.038,0,4.375.41,6.853-1.9a6.6,6.6,0,0,0,1.838-5.3l3.828-.088c.082,3.495-.957,6.257-3.09,8.2C55.093,119.942,51.188,120.3,49.241,120.3Z" transform="translate(-4.223 -49.298)"/><path class="a" d="M39.139,96.456a1.915,1.915,0,1,1-.088-3.828c.082,0,8.259-.372,16.566,0a7.618,7.618,0,0,0,2.445-.186,5.234,5.234,0,0,0-3.375-1.832l-8.412-.678,7.865-3.014c2.155-.826,2.674-1.482,2.773-1.641a5.486,5.486,0,0,0-1.953-1.564c-1.176-.038-4.829-.164-9.845-.416a59.537,59.537,0,0,0-8.5.191c-2.281.186-5.119.421-10.621.476h-.235a63.6,63.6,0,0,0-15.434-.35c-1.291.115-2.735.241-4.474.334a7.433,7.433,0,0,0-1.86,1.094A8.084,8.084,0,0,0,6.23,86.179c.727-.055,2.653-.2,6.733-.547h.1a120.926,120.926,0,0,1,17.562,1.2,1.914,1.914,0,1,1-.547,3.763c-.1,0-10.326-1.395-16.851-1.17-5.469.465-7.05.574-7.11.58H5.776l-.312-.077C4.218,89.57.165,88.143,0,85.195s3.468-4.414,4.66-4.922l.312-.131h.339c1.816-.093,3.282-.219,4.682-.339a66.235,66.235,0,0,1,16.063.334c5.283-.06,8.023-.279,10.228-.459a62.689,62.689,0,0,1,8.986-.208c6.109.312,10.162.432,10.2.432h.377l.339.153c.777.339,4.638,2.188,4.561,5.316a4.189,4.189,0,0,1-1.488,2.992c1.685,1.149,2.9,2.795,2.789,4.529-.213,3.435-4.682,3.615-6.6,3.533-8.138-.35-16.145,0-16.227,0Z" transform="translate(0.01 -35.93)"/><path class="a" d="M8.6,102.093c-2.51,0-5.978-.465-6.946-2.871C.56,96.558,3.294,93.928,5.427,92.183A1.914,1.914,0,1,1,7.85,95.142a10.122,10.122,0,0,0-2.516,2.647,12.836,12.836,0,0,0,4.715.416,1.92,1.92,0,1,1,.306,3.828C9.885,102.055,9.278,102.093,8.6,102.093Z" transform="translate(-0.631 -41.501)"/><path class="a" d="M25.725,106.5l-.574-.782c-1.641-2.264-3.566-4.813-3.889-5.147a1.369,1.369,0,1,1,1.9-1.974c.427.41,2.264,2.871,3.626,4.725l18.792-5.661a1.369,1.369,0,1,1,.793,2.62Z" transform="translate(-9.437 -44.179)"/><path class="a" d="M76.193,95.04,63.247,90.424a1.368,1.368,0,0,1,.919-2.576L75.22,91.791,78.3,87.717a1.367,1.367,0,0,1,2.188,1.641Z" transform="translate(-28.238 -39.453)"/><path class="a" d="M25.736,67.325a1.368,1.368,0,0,0,0-2.735A1.368,1.368,0,0,0,25.736,67.325Z" transform="translate(-11.056 -29.222)"/><path class="a" d="M43.546,67.975a1.368,1.368,0,0,0,0-2.735A1.368,1.368,0,0,0,43.546,67.975Z" transform="translate(-19.125 -29.517)"/><path class="a" d="M58.754,70.365a1.368,1.368,0,0,0,0-2.735A1.368,1.368,0,0,0,58.754,70.365Z" transform="translate(-26.015 -30.6)"/><path class="a" d="M74.826,69.285a1.368,1.368,0,0,0,0-2.735A1.368,1.368,0,0,0,74.826,69.285Z" transform="translate(-33.297 -30.11)"/><path class="a" d="M87.636,70.585a1.368,1.368,0,0,0,0-2.735A1.368,1.368,0,0,0,87.636,70.585Z" transform="translate(-39.101 -30.699)"/><path class="a" d="M79.166,60.815a1.368,1.368,0,0,0,0-2.735A1.368,1.368,0,0,0,79.166,60.815Z" transform="translate(-35.264 -26.273)"/><path class="a" d="M64.616,57.555a1.368,1.368,0,0,0,0-2.735A1.368,1.368,0,0,0,64.616,57.555Z" transform="translate(-28.671 -24.796)"/><path class="a" d="M49.846,59.945a1.368,1.368,0,0,0,0-2.735A1.368,1.368,0,0,0,49.846,59.945Z" transform="translate(-21.98 -25.879)"/><path class="a" d="M34.2,59.295a1.368,1.368,0,0,0,0-2.735A1.368,1.368,0,0,0,34.2,59.295Z" transform="translate(-14.892 -25.584)"/><path class="a" d="M37,19.655a.815.815,0,0,1-.64-1.329h0c.131-.164,3.216-4.184,0-8.116l-.033-.049C34.442,7.475,33.911,5.238,36.257.42a.82.82,0,1,1,1.471.722c-2.188,4.474-1.488,6.016-.082,8.056,4.02,4.961,0,10.1,0,10.151A.831.831,0,0,1,37,19.655Z" transform="translate(-15.714 0.076)"/><path class="a" d="M55.018,19.684a.8.8,0,0,1-.509-.175.826.826,0,0,1-.137-1.154h0c.137-.164,3.221-4.184,0-8.116l-.038-.049C52.453,7.5,51.928,5.266,54.269.448a.822.822,0,0,1,1.477.722c-2.188,4.474-1.493,6.016-.082,8.056,4.02,4.961,0,10.1,0,10.151A.831.831,0,0,1,55.018,19.684Z" transform="translate(-23.876 0.047)"/><path class="a" d="M71.349,19.688a.8.8,0,0,1-.509-.175.826.826,0,0,1-.137-1.154h0c.137-.164,3.216-4.184,0-8.116l-.049-.044c-1.881-2.685-2.406-4.922-.066-9.741a.822.822,0,1,1,1.477.722c-2.188,4.474-1.493,6.016-.082,8.056,4.02,4.961,0,10.1,0,10.151a.809.809,0,0,1-.634.3Z" transform="translate(-31.27 0.043)"/></svg>