<svg xmlns="http://www.w3.org/2000/svg" width="52.32" height="52.32" viewBox="0 0 52.32 52.32"><defs><style>.a{fill:none;stroke:#26e5bc;stroke-miterlimit:10;stroke-width:5px;}.b{fill:#26e5bc;}</style></defs><g transform="translate(2.5 2.5)"><rect class="a" width="47.32" height="47.32" rx="12"/><path class="b" d="M44.9,36.132V56.639c0,1.839,1.294,3.6,2.814,3.517a3.288,3.288,0,0,0,2.814-3.517V36.132c0-1.839-1.294-3.6-2.814-3.517A3.285,3.285,0,0,0,44.9,36.132Z" transform="translate(-30.692 -22.725)"/><path class="b" d="M82.66,36.132V56.639c0,1.839,1.266,3.6,2.754,3.517a3.271,3.271,0,0,0,2.757-3.517V36.132c0-1.839-1.27-3.6-2.757-3.517A3.266,3.266,0,0,0,82.66,36.132Z" transform="translate(-55.172 -22.725)"/></g></svg>